<svg xmlns="http://www.w3.org/2000/svg" height="40" viewBox="0 -960 960 960" width="40" style="fill: white;"><path d="M176.205-160q-24.577 0-41.519-16.942-16.943-16.942-16.943-41.519v-523.078q0-24.577 16.943-41.519Q151.628-800 176.205-800h607.59q24.577 0 41.519 16.942 16.943 16.942 16.943 41.519v523.078q0 24.577-16.943 41.519Q808.372-160 783.795-160h-607.59Zm0-33.846h607.59q9.231 0 16.923-7.692 7.693-7.692 7.693-16.923v-523.078q0-9.231-7.693-16.923-7.692-7.692-16.923-7.692h-607.59q-9.231 0-16.923 7.692-7.693 7.692-7.693 16.923v523.078q0 9.231 7.693 16.923 7.692 7.692 16.923 7.692ZM220-300h160v-40H220v40Zm362-88.461L751.539-558 723-586.539l-141 142-57-57L497.461-473 582-388.461ZM220-460h160v-40H220v40Zm0-160h160v-40H220v40Zm-68.411 426.154v-572.308 572.308Z"/></svg>